# xmcd CD database file
#
# Track frame offsets:
#	150
#	14957
#	45064
#	58227
#	77090
#	93152
#	119675
#	139357
#	160635
#	193645
#
# Disc length: 2806 seconds
#
# Revision: 0
# Processed by: cddbd v1.4PL0 Copyright (c) Steve Scherf et al.
# Submitted via: CDex 1.51
#
DISCID=840af40a
DTITLE=Mickey Day - Middle Age Blues
DYEAR=1900
DGENRE=Blues
TTITLE0=Middle Age Blues
TTITLE1=Stormy Monday
TTITLE2=Time To Sing The Blues
TTITLE3=Nightlife In The City
TTITLE4=I Am A Leavin'
TTITLE5=I Don't Give A Damn
TTITLE6=I'm Tore Down
TTITLE7=New Hat
TTITLE8=Lucky Star
TTITLE9=Further On Up The Road
EXTD=
EXTT0=
EXTT1=
EXTT2=
EXTT3=
EXTT4=
EXTT5=
EXTT6=
EXTT7=
EXTT8=
EXTT9=
PLAYORDER=
